<?xml version="1.0" encoding="utf-8"?>
<!-- Generator: Adobe Illustrator 26.3.1, SVG Export Plug-In . SVG Version: 6.00 Build 0)  -->
<svg version="1.1" id="Layer_1" xmlns="http://www.w3.org/2000/svg" xmlns:xlink="http://www.w3.org/1999/xlink" x="0px" y="0px"
	 viewBox="0 0 300 136" style="enable-background:new 0 0 300 136;" xml:space="preserve">
<style type="text/css">
	.st0{fill:url(#Path_1_00000092451986548374935770000018325168365485843617_);}
	.st1{fill:url(#Path_2_00000098181109185998365320000017958942459819241646_);}
	.st2{fill:url(#Path_3_00000010990673553936854570000001635174931378702249_);}
	.st3{fill:url(#Path_4_00000078735279039236051560000017405169433327504017_);}
	.st4{fill:url(#Path_5_00000028319098599916129550000014741433990942098621_);}
	.st5{fill:url(#Path_6_00000066482212065149479130000013441583205676307605_);}
	.st6{fill:url(#Path_7_00000092448573934107964940000015341779319386165669_);}
	.st7{fill:url(#Path_8_00000116954310702926300270000003425736895822173600_);}
	.st8{fill:url(#Path_9_00000089561090640288130980000014404615201538233738_);}
	.st9{fill:url(#Path_10_00000125603804986174206220000009177431839901142919_);}
	.st10{fill:url(#Path_11_00000036250380978506813340000016175635436713740709_);}
	.st11{fill:url(#Path_12_00000131337890309075861200000009165970131831828116_);}
	.st12{opacity:0.768;}
	.st13{fill:#393D40;}
</style>
<g id="RainyDays_Logo_copy">
	
		<linearGradient id="Path_1_00000134942910103583647070000006491180171900502161_" gradientUnits="userSpaceOnUse" x1="-805.551" y1="-152.6186" x2="-805.551" y2="-151.6178" gradientTransform="matrix(207.464 0 0 54.1519 167277.1719 8272.2812)">
		<stop  offset="0" style="stop-color:#F2F2F0"/>
		<stop  offset="1" style="stop-color:#393D40"/>
	</linearGradient>
	<path id="Path_1" style="fill:url(#Path_1_00000134942910103583647070000006491180171900502161_);" d="M202,29.9
		c0.9,1.4,2.1,2.6,3.5,3.5c2.2,1.7,4.5,3.2,6.8,4.8c0.2,0.1,0.3,0.2,0.4,0.4l0,0c-0.6-0.1-1.2-0.3-1.8-0.5c-5-1.9-9.4-4.9-12.9-8.9
		c-1-1.1-2.3-2-3.7-2.5c-3.8-1.7-7.7-3.3-11.5-5.1c-1.2-0.6-2.4-1.2-3.5-2c-1.1-0.8-2.4-1.2-3.8-1.2c-0.5,0-1,0.3-1.1,0.8
		c0.1,0.3,0.3,0.8,0.4,1.2c0.5,1.3,0.5,2.8,0,4.1c-0.3,1.1-0.7,2.2-1,3.2c0.2,1.6,1.1,3,2.4,4c0.9,0.8,1.7,1.6,2.7,2.5
		c-0.5,0.3-1,0.5-1.2,0.6c-0.2,1.2-0.3,2.2-0.5,3.3c0.8,0.5,1-0.5,1.6-0.7c1,0.7,2.5,3.4,3.7,6.5c-0.3-0.1-0.5-0.2-0.8-0.4
		c-0.8-0.6-1.6-1.2-2.4-1.8c-0.8-0.7-1.8-1.1-2.8-1.4c-1.2,0.8-1.3,0.9-1.2,2.8c2.5,2.8,5.9,4.7,9.1,7c0.3,1.1,0.7,2.3,1,3.6
		c0.4,2.5,1.1,5,2,7.5c0,0.1,0.1,0.3,0.1,0.5c-0.4,0.4-0.8,0.1-1-0.2c-0.8-0.9-1.5-1.9-2.2-2.8c-1.7-2.8-4-5.1-6.7-6.9
		c-1.3-0.9-2.5-2-3.3-3.4c-0.3-0.5-0.7-0.9-1.1-1.2c-0.2,0.3-0.3,0.6-0.4,0.9c0.1,1.4,0.2,2.7,0.2,4c0,0.5,0,1,0,1.6
		c-0.5-0.3-0.9-0.8-1-1.4c-1.2-3.1-3.2-5.9-5.7-8.1c-1.3-1.2-2.5-2.4-3.8-3.6c-0.7-0.6-1-1.4-1-2.2c-0.1-2.1-0.6-4.1-1.4-6.1
		c-0.6-1.4-1-2.8-1.2-4.3c-0.2-1.6-1-3.1-2.3-4c-1.1-0.9-2.3-1.7-3.6-2.4c-1.2-0.7-2.2-1.5-3.2-2.4c-2.8-2.7-5.7-5.4-8.6-8.1
		c-0.2-0.1-0.3-0.2-0.5-0.3c-0.2,0.3-0.3,0.6-0.5,0.9c-0.5,1-1,2-1.6,3c-0.5,0.9-1.2,1.6-2,2.2c-0.9,0.5-1.6,1.2-2,2.1
		c-0.2,0.6-0.4,1.3-0.5,2c0,0.6,0,1.2,0,1.8c-0.6,0.1-1,0.3-1.6,0.5c-0.5,0.6-0.8,1.3-1.2,2c-0.7,1.6-1.3,3.3-1.9,5
		c-0.3,1-0.4,2.1-0.4,3.2c0,0.7,0.2,1.4-0.5,2c-1.3-2.7-1.6-5.5-2.4-8.6c-2.8,3.5-5.5,6.7-8.1,9.9c0.4,0.9,0.7,1.6,1,2.5
		c0.9,2.6,0.7,5.5-0.4,8c-0.3,0.8-0.9,1.6-1.7,2.1c-0.8,0.6-1.9,0.6-2.6-0.1c-0.6-0.5-1.2-1-1.8-1.6c-2-2-3.9-4.1-5.7-6.3
		c-0.6-0.9-1.5-1.5-2.6-1.7c-1.5,0.4-3,1.1-4.2,2.1c-3,2.3-5.9,4.8-8.9,7.1c-2.5,1.9-5.1,3.8-7.7,5.6c-1.2,0.9-2.5,1.4-4,1.6
		c-0.5-0.4-0.8-1.1-0.6-1.8c0.1-0.7,0.2-1.4,0.3-2.1c0.2-0.6-0.1-1.2-0.6-1.6c-1.8,0.5-3.4,1.3-4.8,2.5c-2.5,1.8-4.9,3.7-7.4,5.6
		c-0.5,0.4-1.1,0.7-1.7,0.8c-3.4,0.7-6.8,1.4-10.2,2c-1.4,0.1-2.8,0.1-4.1,0c0.7-0.7,1.5-1.3,2.4-1.8c2.1-1.2,4.2-2.5,6.1-4
		c1-0.7,2-1.3,3.1-1.7c1-0.4,2-0.9,2.9-1.5c0.9-0.5,1.7-1.1,2.6-1.5c1.5-0.6,2.7-1.7,3.6-3c0.3-0.5,0.7-1,1.1-1.4
		c0.2-0.2,0.3-0.4,0.5-0.5c2-1,3.6-2.8,5.7-3.8c0.5-0.2,1-0.5,1.4-0.9c2-2,4.4-3.5,7.1-4.5c1-0.4,1.9-0.9,2.7-1.6
		c1.5-1.1,3.1-2.1,4.8-3c0.5-0.4,1.1-0.7,1.6-1.1c0.3-0.2,0.7-0.5,1-0.6c2-0.6,3.5-2.1,5.1-3.2c0.6-0.4,1.2-0.7,1.8-1
		c0.1-0.1,0.3-0.1,0.4-0.2c2.4-1.7,5.2-2.7,7.4-4.7c0.3-0.3,0.7-0.5,1-0.6c1.8-0.7,3.5-1.7,5-2.9c0.8-0.6,1.7-1.2,2.6-1.9
		c0.4-0.1,0.8-0.1,1.2-0.1c2.3-1.4,4.6-2.8,7-4.3c1.2,0.1,2-0.6,2.8-1.5c0.5-0.1,0.9-0.1,1.3-0.2c0,0,0-0.1-0.1-0.1
		c1.4-0.7,2.8-1.3,4.2-2c0.6-0.3,1.4-0.3,2,0.1c0.9,0.5,1.9,0.9,2.9,1.2c1.7,0.6,3.3,1.4,4.8,2.5c1.3,0.9,2.6,1.8,4,2.7
		c0.8,0.5,1.6,0.9,2.4,1.4c0.2,0.1,0.4,0.3,0.6,0.5c1.2,1.8,3.2,2.3,4.7,3.6c1.1-0.5,2.2-1,3.4-1.6c0.4,0.1,0.9,0.2,1.6,0.3
		c1.5-0.5,3-1.3,4.4-2.1c1.5-0.7,2.9-1.5,4.4-2.1c0.9-0.4,1.9-0.4,2.7,0.1c0.9,0.5,1.8,0.7,2.7,1.2c1,0.5,2,1,2.9,1.7
		c1.1,0.7,2.4,1.2,3.7,1.5c2.6,0.8,5.1,1.5,7.7,2.3c1.9,0.6,3.5,1.5,5.3,2.2c1.1,0.5,2.2,1.1,3.2,1.9c0.3-0.1,0.6-0.1,0.9-0.2
		c5,2,9.9,4.5,14.4,7.5c0.5,0.3,0.9,0.6,1.3,1c1.4,1.5,3.2,2.5,5.2,3c1,0.4,2.1,0.7,3.1,1.1c3,1.2,5.7,3.1,7.7,5.7
		c2,2.3,4,4.5,6.2,6.7c1.9,1.9,4.2,3.4,6.7,4.3c2,0.7,3.8,1.8,5.4,3.1c2.1,1.8,4.5,3.3,7,4.4c-1.5,0.2-3,0-4.5-0.4
		c-2-0.7-4-1.1-6-1.6c-0.8-0.2-1.6-0.6-2.3-1c-3.3-2.4-6.7-4.8-9.4-8c-0.9-1.1-1.8-2.1-2.8-3.1c-1-1-2-1.9-3.1-2.8
		c-0.7-0.5-1.4-0.9-2.2-1.1c-2.7-0.7-5.3-2-7.6-3.6c-1.6-1.1-3.2-2.2-4.8-3.4c-1.2-0.9-2.5-1.7-3.8-2.3c-1.1-0.6-2.2-1.4-3.1-2.3
		C206.6,30.6,204.3,29.8,202,29.9C201.9,29.8,201.9,29.7,202,29.9L202,29.9z"/>
	
		<linearGradient id="Path_2_00000111170643553301359250000011124462436988535967_" gradientUnits="userSpaceOnUse" x1="-784.0454" y1="-150.9806" x2="-784.0454" y2="-149.9807" gradientTransform="matrix(22.0395 0 0 44.3227 17391.9375 6759.7061)">
		<stop  offset="0" style="stop-color:#F2F2F0"/>
		<stop  offset="1" style="stop-color:#393D40"/>
	</linearGradient>
	<path id="Path_2" style="fill:url(#Path_2_00000111170643553301359250000011124462436988535967_);" d="M107.6,85.9l-0.2,0.1
		c0,0,0,0.1-0.1,0.1c0,0.1,0,0.3,0,0.5v25.4c-1,0.1-2.1,0.1-3.1,0.1c-1,0-2.1,0-3.1,0c-0.2-1.1-0.3-41.9-0.1-44.2c1,0,1.9,0,2.9,0
		h3.1c3.1,8.7,6.3,17.5,9.4,26.2c0.1,0,0.1,0,0.2,0c0,0,0.1-0.1,0.1-0.1c0,0,0-0.1,0-0.1c0-0.1,0-0.3,0-0.5c0-8.4,0-16.8,0-25.1
		c0-0.1,0.1-0.2,0.1-0.3c1.9-0.1,4,0,6,0v44.2c-1.9,0.1-3.8,0-5.8,0C114,103.4,110.8,94.7,107.6,85.9z"/>
	
		<linearGradient id="Path_3_00000123413270345106050290000003024930786453794751_" gradientUnits="userSpaceOnUse" x1="-784.7655" y1="-150.9786" x2="-784.7655" y2="-149.9785" gradientTransform="matrix(22.7194 0 0 44.3133 17849.459 6758.2349)">
		<stop  offset="0" style="stop-color:#F2F2F0"/>
		<stop  offset="1" style="stop-color:#393D40"/>
	</linearGradient>
	<path id="Path_3" style="fill:url(#Path_3_00000123413270345106050290000003024930786453794751_);" d="M24.6,92
		c2.3,6.7,4.5,13.4,6.8,20.1h-6.7c-1.9-6.2-3.9-12.5-5.9-18.8h-3.7l-0.1,0.1c0,0-0.1,0.1-0.1,0.1c0,0.1,0,0.3,0,0.5v18
		c-1,0.2-2,0.2-3.1,0.1c-1,0-2,0-3,0C8.7,111.1,8.6,70.3,8.9,68c0.2,0,0.5-0.1,0.7-0.1c3.4,0,6.8,0,10.2,0c1.1,0,2.2,0.2,3.2,0.4
		c3,0.8,5.3,3.1,6.2,6c0.7,2.2,1,4.5,0.9,6.8c0,1.6-0.2,3.3-0.6,4.9c-0.6,2.2-2,4.2-3.9,5.5C25.2,91.6,24.9,91.8,24.6,92z M15,87.7
		c1.9-0.1,3.7,0.2,5.5-0.3c1.4-0.2,2.5-1.3,2.8-2.6c0.6-2.6,0.7-5.4,0.1-8c-0.3-1.5-1.5-2.6-3-2.9c-1.8-0.2-3.6-0.2-5.3,0.1
		C15,78.5,15,83,15,87.7z"/>
	
		<linearGradient id="Path_4_00000147915815274726204400000001255739456976291002_" gradientUnits="userSpaceOnUse" x1="-782.2853" y1="-150.9788" x2="-782.2853" y2="-149.979" gradientTransform="matrix(20.537 0 0 44.3154 16247.8965 6758.5547)">
		<stop  offset="0" style="stop-color:#F2F2F0"/>
		<stop  offset="1" style="stop-color:#393D40"/>
	</linearGradient>
	<path id="Path_4" style="fill:url(#Path_4_00000147915815274726204400000001255739456976291002_);" d="M171.8,112.1V68
		c0.3,0,0.6-0.1,0.9-0.1h9.1c1.5,0,2.9,0.2,4.2,0.7c2.9,1,5.1,3.5,5.7,6.6c0.3,1.5,0.5,3,0.6,4.6c0.1,6.7,0.1,13.4,0,20
		c0,1.9-0.2,3.8-0.8,5.6c-0.9,3.1-3.4,5.5-6.5,6.2c-1.4,0.4-2.9,0.5-4.4,0.6C177.8,112.2,174.9,112.1,171.8,112.1z M178.1,106.2
		c1.2,0,2.4,0,3.6,0c2.5-0.3,4-1.4,4.2-4.5c0-0.4,0-0.7,0-1V79.2c0-0.5,0-1.1-0.1-1.6c-0.1-1.7-1.2-3.1-2.8-3.6
		c-1.6-0.2-3.3-0.2-4.9,0.1C178.1,84.7,178.1,95.4,178.1,106.2L178.1,106.2z"/>
	
		<linearGradient id="Path_5_00000170968365101414862450000014605094914499368124_" gradientUnits="userSpaceOnUse" x1="-783.5523" y1="-151.155" x2="-783.5523" y2="-150.1552" gradientTransform="matrix(21.5964 0 0 45.1929 17203.1934 6898.4917)">
		<stop  offset="0" style="stop-color:#F2F2F0"/>
		<stop  offset="1" style="stop-color:#393D40"/>
	</linearGradient>
	<path id="Path_5" style="fill:url(#Path_5_00000170968365101414862450000014605094914499368124_);" d="M292.1,80.4h-6.2
		c0-0.6-0.1-1.3-0.1-1.9c0-1.2-0.4-2.3-1.1-3.2c-0.3-0.5-0.7-0.8-1.2-1.1c-2.4-1-5.5-0.5-6.2,2.8c-0.3,1.6-0.4,3.2-0.2,4.8
		c0.1,1.3,1,2.5,2.2,3c1.3,0.6,2.7,1.2,4.1,1.8c1,0.4,2,0.8,3,1.2c3.3,1.3,5.5,4.5,5.5,8c0.1,2.2,0.1,4.4,0,6.6
		c-0.1,1.6-0.5,3.1-1.1,4.6c-1.1,2.6-3.3,4.5-6,5.1c-3.2,1-6.8,0.5-9.6-1.3c-2.8-1.7-4.6-4.6-4.7-7.9c-0.1-1,0-2.1,0-3.3
		c2.1-0.1,4.1,0,6.2-0.1c0,0.7,0,1.3,0,1.9c0,0.6,0.1,1.2,0.3,1.8c0.3,1.5,1.6,2.6,3.1,2.9c1.1,0.2,2.3,0.1,3.3-0.3
		c1.3-0.5,2.2-1.8,2.2-3.3c0.1-1.9,0.1-3.9,0-5.8c0-1.5-1-2.9-2.5-3.4c-1.4-0.6-2.8-1.2-4.2-1.8c-1.2-0.5-2.4-1.1-3.6-1.7
		c-2.2-1.2-3.7-3.3-4.2-5.7c-0.8-3-0.7-6.2,0.2-9.1c1.3-4.2,4-6.8,8.4-7.3c4.3-0.8,8.7,1.2,11,5c0.8,1.2,1.2,2.6,1.2,4.1
		C292.1,77.9,292.1,79.1,292.1,80.4z"/>
	
		<linearGradient id="Path_6_00000165921679166521271140000016821306740019645362_" gradientUnits="userSpaceOnUse" x1="-786.9025" y1="-150.94" x2="-786.9025" y2="-149.9401" gradientTransform="matrix(25.009 0 0 44.125 19896.1758 6728.1797)">
		<stop  offset="0" style="stop-color:#F2F2F0"/>
		<stop  offset="1" style="stop-color:#393D40"/>
	</linearGradient>
	<path id="Path_6" style="fill:url(#Path_6_00000165921679166521271140000016821306740019645362_);" d="M213.9,68h5.3
		c3.3,14.7,6.6,29.4,9.8,44.1h-6.3c-0.6-3.1-1.3-6.3-1.9-9.5h-8.7c-0.6,3.1-1.3,6.2-1.9,9.5H204C207.3,97.4,210.6,82.7,213.9,68z
		 M216.7,80.9h-0.3c-1,5.2-2,10.4-3,15.6c2.1,0.3,4.2,0.3,6.3,0C218.7,91.2,217.7,86.1,216.7,80.9L216.7,80.9z"/>
	
		<linearGradient id="Path_7_00000147930749029376268660000007840811443629910679_" gradientUnits="userSpaceOnUse" x1="-786.9031" y1="-150.9462" x2="-786.9031" y2="-149.9463" gradientTransform="matrix(25.009 0 0 44.155 19733.8555 6732.981)">
		<stop  offset="0" style="stop-color:#F2F2F0"/>
		<stop  offset="1" style="stop-color:#393D40"/>
	</linearGradient>
	<path id="Path_7" style="fill:url(#Path_7_00000147930749029376268660000007840811443629910679_);" d="M51.5,68h5.3
		c3.3,14.7,6.6,29.4,9.9,44.1h-6.3c-0.6-3.1-1.3-6.3-1.9-9.5h-8.7c-0.6,3.2-1.3,6.3-1.9,9.4h-6.3C45,97.3,48.2,82.6,51.5,68z
		 M57.2,96.6c0-0.4,0-0.7,0-1c-0.9-4.6-1.8-9.1-2.7-13.7c-0.1-0.4-0.3-0.8-0.5-1.1c-1,5.4-2,10.6-3,15.9H57.2z"/>
	
		<linearGradient id="Path_8_00000023968357428009424890000000497618888777697441_" gradientUnits="userSpaceOnUse" x1="-806.0809" y1="-15.0917" x2="-806.0809" y2="-14.0917" gradientTransform="matrix(261.728 0 0 2.7588 211124.125 166.6676)">
		<stop  offset="0" style="stop-color:#F2F2F0"/>
		<stop  offset="1" style="stop-color:#393D40"/>
	</linearGradient>
	<path id="Path_8" style="fill:url(#Path_8_00000023968357428009424890000000497618888777697441_);" d="M281.1,126.3
		c-3.3,0-6.6,0-9.8,0c-5,0.1-10,0.1-15.1,0.3c-5.2,0.3-10.3,0-15.5,0.3c-6.5,0.3-13,0.1-19.6,0.3c-9.1,0.4-18.2,0.1-27.3,0.3
		c-19.1,0.5-38.2,0.2-57.3,0.2c-9,0-18,0.1-27.1-0.1c-9.3-0.2-18.6,0-27.9-0.3c-6.4-0.2-12.7-0.1-19.1-0.3
		c-5.4-0.1-10.9-0.2-16.3-0.3c-4.5-0.1-9-0.2-13.4-0.3c-4.4-0.1-8.9-0.3-13.3-0.5c0.6,0,1.1,0,1.7,0c8.5-0.4,17-0.1,25.5-0.4
		c10.2-0.3,20.3-0.1,30.5-0.3c34.8-0.5,69.5-0.2,104.3-0.3c9.9,0,19.7,0,29.6,0.1c3.1,0,6.3-0.1,9.4,0.1c10.5,0.4,20.9,0.1,31.4,0.3
		c7.7,0.2,15.4,0.1,23.2,0.3c2,0,4.1,0.2,6.1,0.3C281.1,126.1,281.1,126.2,281.1,126.3z"/>
	
		<linearGradient id="Path_9_00000002383224304450921480000000225868065635410581_" gradientUnits="userSpaceOnUse" x1="-785.6721" y1="-150.94" x2="-785.6721" y2="-149.9399" gradientTransform="matrix(23.637 0 0 44.125 18718.2598 6728.168)">
		<stop  offset="0" style="stop-color:#F2F2F0"/>
		<stop  offset="1" style="stop-color:#393D40"/>
	</linearGradient>
	<path id="Path_9" style="fill:url(#Path_9_00000002383224304450921480000000225868065635410581_);" d="M150.5,112.1h-6.3V94.8
		c0-0.8-0.1-1.6-0.4-2.3c-2.6-7.6-5.1-15.1-7.7-22.7c-0.2-0.6-0.4-1.2-0.7-1.9h6.6c1,2.8,1.7,5.7,2.5,8.6c0.9,2.9,1.7,5.8,2.8,8.7
		c1.7-5.7,3.3-11.5,5-17.2h6.7c-0.5,1.3-0.8,2.6-1.3,3.8c-2.3,6.7-4.6,13.4-6.9,20.1c-0.3,0.9-0.5,1.9-0.5,2.9c0,5.2,0,10.5,0,15.7
		C150.5,111,150.5,111.5,150.5,112.1z"/>
	
		<linearGradient id="Path_10_00000118359817040690501870000004927294596856117652_" gradientUnits="userSpaceOnUse" x1="-785.6097" y1="-150.9781" x2="-785.6097" y2="-149.9782" gradientTransform="matrix(23.5721 0 0 44.3087 18765.7285 6757.5171)">
		<stop  offset="0" style="stop-color:#F2F2F0"/>
		<stop  offset="1" style="stop-color:#393D40"/>
	</linearGradient>
	<path id="Path_10" style="fill:url(#Path_10_00000118359817040690501870000004927294596856117652_);" d="M247.3,85.5
		c1.7-6,3.4-11.7,5.1-17.6c1.1,0,2.2,0,3.2,0h3.4c-0.6,1.9-1.2,3.6-1.8,5.4c-1.4,4.2-2.9,8.4-4.3,12.6c-0.7,2-1.3,4-2,5.9
		c-0.3,0.9-0.5,1.9-0.5,2.9c0,5.2,0,10.5,0,15.7v1.6c-1,0.1-2.1,0.1-3.1,0.1h-3.1c0-0.5-0.1-0.9-0.1-1.4c0-5.3,0-10.6,0-16
		c0-0.7-0.1-1.5-0.4-2.2c-2.2-6.6-4.5-13.1-6.7-19.7c-0.5-1.4-1-2.7-1.4-4.1c-0.1-0.2-0.1-0.5-0.2-0.8c1.1-0.2,2.2-0.2,3.3-0.1
		c1,0,2.1,0,3.3,0c0.9,2.9,1.7,5.8,2.5,8.7C245.5,79.5,246.1,82.4,247.3,85.5z"/>
	
		<linearGradient id="Path_11_00000075150276594207849270000009047600903671125420_" gradientUnits="userSpaceOnUse" x1="-723.7897" y1="-150.9462" x2="-723.7897" y2="-149.9463" gradientTransform="matrix(6.2893 0 0 44.155 4634.6206 6732.981)">
		<stop  offset="0" style="stop-color:#F2F2F0"/>
		<stop  offset="1" style="stop-color:#393D40"/>
	</linearGradient>
	<path id="Path_11" style="fill:url(#Path_11_00000075150276594207849270000009047600903671125420_);" d="M79.4,68h6.1
		c0.2,1.2,0.3,42.4,0.1,44.1h-6.1c-0.1-1.4,0-2.9,0-4.4V68L79.4,68z"/>
	
		<linearGradient id="Path_12_00000085221056015947218610000000709482308445561476_" gradientUnits="userSpaceOnUse" x1="1836.8135" y1="4552.7134" x2="1836.8135" y2="4553.7139" gradientTransform="matrix(0.2005 0 0 8.480000e-02 -155.4463 -347.5932)">
		<stop  offset="0" style="stop-color:#F2F2F0"/>
		<stop  offset="1" style="stop-color:#393D40"/>
	</linearGradient>
	<path id="Path_12" style="fill:url(#Path_12_00000085221056015947218610000000709482308445561476_);" d="M212.7,38.6
		c0.2,0,0.3,0,0.2,0C213,38.7,212.9,38.6,212.7,38.6L212.7,38.6z"/>
</g>
<g id="RainyDays_Logo_copy-2" class="st12">
	<path id="Path_1-2" class="st13" d="M202,29.9c0.9,1.4,2.1,2.6,3.5,3.5c2.2,1.7,4.5,3.2,6.8,4.8c0.2,0.1,0.3,0.2,0.4,0.4l0,0
		c-0.6-0.1-1.2-0.3-1.8-0.5c-5-1.9-9.4-4.9-12.9-8.9c-1-1.1-2.3-2-3.7-2.5c-3.8-1.7-7.7-3.3-11.5-5.1c-1.2-0.6-2.4-1.2-3.5-2
		c-1.1-0.8-2.4-1.2-3.8-1.2c-0.5,0-1,0.3-1.1,0.8c0.1,0.3,0.3,0.8,0.4,1.2c0.5,1.3,0.5,2.8,0,4.1c-0.3,1.1-0.7,2.2-1,3.2
		c0.2,1.6,1.1,3,2.4,4c0.9,0.8,1.7,1.6,2.7,2.5c-0.5,0.3-1,0.5-1.2,0.6c-0.2,1.2-0.3,2.2-0.5,3.3c0.8,0.5,1-0.5,1.6-0.7
		c1,0.7,2.5,3.4,3.7,6.5c-0.3-0.1-0.5-0.2-0.8-0.4c-0.8-0.6-1.6-1.2-2.4-1.8c-0.8-0.7-1.8-1.1-2.8-1.4c-1.2,0.8-1.3,0.9-1.2,2.8
		c2.5,2.8,5.9,4.7,9.1,7c0.3,1.1,0.7,2.3,1,3.6c0.4,2.5,1.1,5,2,7.5c0,0.1,0.1,0.3,0.1,0.5c-0.4,0.4-0.8,0.1-1-0.2
		c-0.8-0.9-1.5-1.9-2.2-2.8c-1.7-2.8-4-5.1-6.7-6.9c-1.3-0.9-2.5-2-3.3-3.4c-0.3-0.5-0.7-0.9-1.1-1.2c-0.2,0.3-0.3,0.6-0.4,0.9
		c0.1,1.4,0.2,2.7,0.2,4c0,0.5,0,1,0,1.6c-0.5-0.3-0.9-0.8-1-1.4c-1.2-3.1-3.2-5.9-5.7-8.1c-1.3-1.2-2.5-2.4-3.8-3.6
		c-0.7-0.6-1-1.4-1-2.2c-0.1-2.1-0.6-4.1-1.4-6.1c-0.6-1.4-1-2.8-1.2-4.3c-0.2-1.6-1-3.1-2.3-4c-1.1-0.9-2.3-1.7-3.6-2.4
		c-1.2-0.7-2.2-1.5-3.2-2.4c-2.8-2.7-5.7-5.4-8.6-8.1c-0.2-0.1-0.3-0.2-0.5-0.3c-0.2,0.3-0.3,0.6-0.5,0.9c-0.5,1-1,2-1.6,3
		c-0.5,0.9-1.2,1.6-2,2.2c-0.9,0.5-1.6,1.2-2,2.1c-0.2,0.6-0.4,1.3-0.5,2c0,0.6,0,1.2,0,1.8c-0.6,0.1-1,0.3-1.6,0.5
		c-0.5,0.6-0.8,1.3-1.2,2c-0.7,1.6-1.3,3.3-1.9,5c-0.3,1-0.4,2.1-0.4,3.2c0,0.7,0.2,1.4-0.5,2c-1.3-2.7-1.6-5.5-2.4-8.6
		c-2.8,3.5-5.5,6.7-8.1,9.9c0.4,0.9,0.7,1.6,1,2.5c0.9,2.6,0.7,5.5-0.4,8c-0.3,0.8-0.9,1.6-1.7,2.1c-0.8,0.6-1.9,0.6-2.6-0.1
		c-0.6-0.5-1.2-1-1.8-1.6c-2-2-3.9-4.1-5.7-6.3c-0.6-0.9-1.5-1.5-2.6-1.7c-1.5,0.4-3,1.1-4.2,2.1c-3,2.3-5.9,4.8-8.9,7.1
		c-2.5,1.9-5.1,3.8-7.7,5.6c-1.2,0.9-2.5,1.4-4,1.6c-0.5-0.4-0.8-1.1-0.6-1.8c0.1-0.7,0.2-1.4,0.3-2.1c0.2-0.6-0.1-1.2-0.6-1.6
		c-1.8,0.5-3.4,1.3-4.8,2.5c-2.5,1.8-4.9,3.7-7.4,5.6c-0.5,0.4-1.1,0.7-1.7,0.8c-3.4,0.7-6.8,1.4-10.2,2c-1.4,0.1-2.8,0.1-4.1,0
		c0.7-0.7,1.5-1.3,2.4-1.8c2.1-1.2,4.2-2.5,6.1-4c1-0.7,2-1.3,3.1-1.7c1-0.4,2-0.9,2.9-1.5c0.9-0.5,1.7-1.1,2.6-1.5
		c1.5-0.6,2.7-1.7,3.6-3c0.3-0.5,0.7-1,1.1-1.4c0.2-0.2,0.3-0.4,0.5-0.5c2-1,3.6-2.8,5.7-3.8c0.5-0.2,1-0.5,1.4-0.9
		c2-2,4.4-3.5,7.1-4.5c1-0.4,1.9-0.9,2.7-1.6c1.5-1.1,3.1-2.1,4.8-3c0.5-0.4,1.1-0.7,1.6-1.1c0.3-0.2,0.7-0.5,1-0.6
		c2-0.6,3.5-2.1,5.1-3.2c0.6-0.4,1.2-0.7,1.8-1c0.1-0.1,0.3-0.1,0.4-0.2c2.4-1.7,5.2-2.7,7.4-4.7c0.3-0.3,0.7-0.5,1-0.6
		c1.8-0.7,3.5-1.7,5-2.9c0.8-0.6,1.7-1.2,2.6-1.9c0.4-0.1,0.8-0.1,1.2-0.1c2.3-1.4,4.6-2.8,7-4.3c1.2,0.1,2-0.6,2.8-1.5
		c0.5-0.1,0.9-0.1,1.3-0.2c0,0,0-0.1-0.1-0.1c1.4-0.7,2.8-1.3,4.2-2c0.6-0.3,1.4-0.3,2,0.1c0.9,0.5,1.9,0.9,2.9,1.2
		c1.7,0.6,3.3,1.4,4.8,2.5c1.3,0.9,2.6,1.8,4,2.7c0.8,0.5,1.6,0.9,2.4,1.4c0.2,0.1,0.4,0.3,0.6,0.5c1.2,1.8,3.2,2.3,4.7,3.6
		c1.1-0.5,2.2-1,3.4-1.6c0.4,0.1,0.9,0.2,1.6,0.3c1.5-0.5,3-1.3,4.4-2.1c1.5-0.7,2.9-1.5,4.4-2.1c0.9-0.4,1.9-0.4,2.7,0.1
		c0.9,0.5,1.8,0.7,2.7,1.2c1,0.5,2,1,2.9,1.7c1.1,0.7,2.4,1.2,3.7,1.5c2.6,0.8,5.1,1.5,7.7,2.3c1.9,0.6,3.5,1.5,5.3,2.2
		c1.1,0.5,2.2,1.1,3.2,1.9c0.3-0.1,0.6-0.1,0.9-0.2c5,2,9.9,4.5,14.4,7.5c0.5,0.3,0.9,0.6,1.3,1c1.4,1.5,3.2,2.5,5.2,3
		c1,0.4,2.1,0.7,3.1,1.1c3,1.2,5.7,3.1,7.7,5.7c2,2.3,4,4.5,6.2,6.7c1.9,1.9,4.2,3.4,6.7,4.3c2,0.7,3.8,1.8,5.4,3.1
		c2.1,1.8,4.5,3.3,7,4.4c-1.5,0.2-3,0-4.5-0.4c-2-0.7-4-1.1-6-1.6c-0.8-0.2-1.6-0.6-2.3-1c-3.3-2.4-6.7-4.8-9.4-8
		c-0.9-1.1-1.8-2.1-2.8-3.1c-1-1-2-1.9-3.1-2.8c-0.7-0.5-1.4-0.9-2.2-1.1c-2.7-0.7-5.3-2-7.6-3.6c-1.6-1.1-3.2-2.2-4.8-3.4
		c-1.2-0.9-2.5-1.7-3.8-2.3c-1.1-0.6-2.2-1.4-3.1-2.3C206.6,30.6,204.3,29.8,202,29.9C201.9,29.8,201.9,29.7,202,29.9L202,29.9z"/>
	<path id="Path_2-2" class="st13" d="M107.6,85.9l-0.2,0.1c0,0,0,0.1-0.1,0.1c0,0.1,0,0.3,0,0.5v25.4c-1,0.1-2.1,0.1-3.1,0.1
		c-1,0-2.1,0-3.1,0c-0.2-1.1-0.3-41.9-0.1-44.2c1,0,1.9,0,2.9,0h3.1c3.1,8.7,6.3,17.5,9.4,26.2c0.1,0,0.1,0,0.2,0
		c0,0,0.1-0.1,0.1-0.1c0,0,0-0.1,0-0.1c0-0.1,0-0.3,0-0.5c0-8.4,0-16.8,0-25.1c0-0.1,0.1-0.2,0.1-0.3c1.9-0.1,4,0,6,0v44.2
		c-1.9,0.1-3.8,0-5.8,0C114,103.4,110.8,94.7,107.6,85.9z"/>
	<path id="Path_3-2" class="st13" d="M24.6,92c2.3,6.7,4.5,13.4,6.8,20.1h-6.7c-1.9-6.2-3.9-12.5-5.9-18.8h-3.7l-0.1,0.1
		c0,0-0.1,0.1-0.1,0.1c0,0.1,0,0.3,0,0.5v18c-1,0.2-2,0.2-3.1,0.1c-1,0-2,0-3,0C8.7,111.1,8.6,70.3,8.9,68c0.2,0,0.5-0.1,0.7-0.1
		c3.4,0,6.8,0,10.2,0c1.1,0,2.2,0.2,3.2,0.4c3,0.8,5.3,3.1,6.2,6c0.7,2.2,1,4.5,0.9,6.8c0,1.6-0.2,3.3-0.6,4.9
		c-0.6,2.2-2,4.2-3.9,5.5C25.2,91.6,24.9,91.8,24.6,92z M15,87.7c1.9-0.1,3.7,0.2,5.5-0.3c1.4-0.2,2.5-1.3,2.8-2.6
		c0.6-2.6,0.7-5.4,0.1-8c-0.3-1.5-1.5-2.6-3-2.9c-1.8-0.2-3.6-0.2-5.3,0.1C15,78.5,15,83,15,87.7z"/>
	<path id="Path_4-2" class="st13" d="M171.8,112.1V68c0.3,0,0.6-0.1,0.9-0.1h9.1c1.5,0,2.9,0.2,4.2,0.7c2.9,1,5.1,3.5,5.7,6.6
		c0.3,1.5,0.5,3,0.6,4.6c0.1,6.7,0.1,13.4,0,20c0,1.9-0.2,3.8-0.8,5.6c-0.9,3.1-3.4,5.5-6.5,6.2c-1.4,0.4-2.9,0.5-4.4,0.6
		C177.8,112.2,174.9,112.1,171.8,112.1z M178.1,106.2c1.2,0,2.4,0,3.6,0c2.5-0.3,4-1.4,4.2-4.5c0-0.4,0-0.7,0-1V79.2
		c0-0.5,0-1.1-0.1-1.6c-0.1-1.7-1.2-3.1-2.8-3.6c-1.6-0.2-3.3-0.2-4.9,0.1C178.1,84.7,178.1,95.4,178.1,106.2L178.1,106.2z"/>
	<path id="Path_5-2" class="st13" d="M292.1,80.4h-6.2c0-0.6-0.1-1.3-0.1-1.9c0-1.2-0.4-2.3-1.1-3.2c-0.3-0.5-0.7-0.8-1.2-1.1
		c-2.4-1-5.5-0.5-6.2,2.8c-0.3,1.6-0.4,3.2-0.2,4.8c0.1,1.3,1,2.5,2.2,3c1.3,0.6,2.7,1.2,4.1,1.8c1,0.4,2,0.8,3,1.2
		c3.3,1.3,5.5,4.5,5.5,8c0.1,2.2,0.1,4.4,0,6.6c-0.1,1.6-0.5,3.1-1.1,4.6c-1.1,2.6-3.3,4.5-6,5.1c-3.2,1-6.8,0.5-9.6-1.3
		c-2.8-1.7-4.6-4.6-4.7-7.9c-0.1-1,0-2.1,0-3.3c2.1-0.1,4.1,0,6.2-0.1c0,0.7,0,1.3,0,1.9c0,0.6,0.1,1.2,0.3,1.8
		c0.3,1.5,1.6,2.6,3.1,2.9c1.1,0.2,2.3,0.1,3.3-0.3c1.3-0.5,2.2-1.8,2.2-3.3c0.1-1.9,0.1-3.9,0-5.8c0-1.5-1-2.9-2.5-3.4
		c-1.4-0.6-2.8-1.2-4.2-1.8c-1.2-0.5-2.4-1.1-3.6-1.7c-2.2-1.2-3.7-3.3-4.2-5.7c-0.8-3-0.7-6.2,0.2-9.1c1.3-4.2,4-6.8,8.4-7.3
		c4.3-0.8,8.7,1.2,11,5c0.8,1.2,1.2,2.6,1.2,4.1C292.1,77.9,292.1,79.1,292.1,80.4z"/>
	<path id="Path_6-2" class="st13" d="M213.9,68h5.3c3.3,14.7,6.6,29.4,9.8,44.1h-6.3c-0.6-3.1-1.3-6.3-1.9-9.5h-8.7
		c-0.6,3.1-1.3,6.2-1.9,9.5H204C207.3,97.4,210.6,82.7,213.9,68z M216.7,80.9h-0.3c-1,5.2-2,10.4-3,15.6c2.1,0.3,4.2,0.3,6.3,0
		C218.7,91.2,217.7,86.1,216.7,80.9L216.7,80.9z"/>
	<path id="Path_7-2" class="st13" d="M51.5,68h5.3c3.3,14.7,6.6,29.4,9.9,44.1h-6.3c-0.6-3.1-1.3-6.3-1.9-9.5h-8.7
		c-0.6,3.2-1.3,6.3-1.9,9.4h-6.3C45,97.3,48.2,82.6,51.5,68z M57.2,96.6c0-0.4,0-0.7,0-1c-0.9-4.6-1.8-9.1-2.7-13.7
		c-0.1-0.4-0.3-0.8-0.5-1.1c-1,5.4-2,10.6-3,15.9H57.2z"/>
	<path id="Path_8-2" class="st13" d="M281.1,126.3c-3.3,0-6.6,0-9.8,0c-5,0.1-10,0.1-15.1,0.3c-5.2,0.3-10.3,0-15.5,0.3
		c-6.5,0.3-13,0.1-19.6,0.3c-9.1,0.4-18.2,0.1-27.3,0.3c-19.1,0.5-38.2,0.2-57.3,0.2c-9,0-18,0.1-27.1-0.1c-9.3-0.2-18.6,0-27.9-0.3
		c-6.4-0.2-12.7-0.1-19.1-0.3c-5.4-0.1-10.9-0.2-16.3-0.3c-4.5-0.1-9-0.2-13.4-0.3c-4.4-0.1-8.9-0.3-13.3-0.5c0.6,0,1.1,0,1.7,0
		c8.5-0.4,17-0.1,25.5-0.4c10.2-0.3,20.3-0.1,30.5-0.3c34.8-0.5,69.5-0.2,104.3-0.3c9.9,0,19.7,0,29.6,0.1c3.1,0,6.3-0.1,9.4,0.1
		c10.5,0.4,20.9,0.1,31.4,0.3c7.7,0.2,15.4,0.1,23.2,0.3c2,0,4.1,0.2,6.1,0.3C281.1,126.1,281.1,126.2,281.1,126.3z"/>
	<path id="Path_9-2" class="st13" d="M150.5,112.1h-6.3V94.8c0-0.8-0.1-1.6-0.4-2.3c-2.6-7.6-5.1-15.1-7.7-22.7
		c-0.2-0.6-0.4-1.2-0.7-1.9h6.6c1,2.8,1.7,5.7,2.5,8.6c0.9,2.9,1.7,5.8,2.8,8.7c1.7-5.7,3.3-11.5,5-17.2h6.7
		c-0.5,1.3-0.8,2.6-1.3,3.8c-2.3,6.7-4.6,13.4-6.9,20.1c-0.3,0.9-0.5,1.9-0.5,2.9c0,5.2,0,10.5,0,15.7
		C150.5,111,150.5,111.5,150.5,112.1z"/>
	<path id="Path_10-2" class="st13" d="M247.3,85.5c1.7-6,3.4-11.7,5.1-17.6c1.1,0,2.2,0,3.2,0h3.4c-0.6,1.9-1.2,3.6-1.8,5.4
		c-1.4,4.2-2.9,8.4-4.3,12.6c-0.7,2-1.3,4-2,5.9c-0.3,0.9-0.5,1.9-0.5,2.9c0,5.2,0,10.5,0,15.7v1.6c-1,0.1-2.1,0.1-3.1,0.1h-3.1
		c0-0.5-0.1-0.9-0.1-1.4c0-5.3,0-10.6,0-16c0-0.7-0.1-1.5-0.4-2.2c-2.2-6.6-4.5-13.1-6.7-19.7c-0.5-1.4-1-2.7-1.4-4.1
		c-0.1-0.2-0.1-0.5-0.2-0.8c1.1-0.2,2.2-0.2,3.3-0.1c1,0,2.1,0,3.3,0c0.9,2.9,1.7,5.8,2.5,8.7C245.5,79.5,246.1,82.4,247.3,85.5z"/>
	<path id="Path_11-2" class="st13" d="M79.4,68h6.1c0.2,1.2,0.3,42.4,0.1,44.1h-6.1c-0.1-1.4,0-2.9,0-4.4V68L79.4,68z"/>
	<path id="Path_12-2" class="st13" d="M212.7,38.6c0.2,0,0.3,0,0.2,0C213,38.7,212.9,38.6,212.7,38.6L212.7,38.6z"/>
</g>
</svg>
