<?xml version="1.0" encoding="utf-8"?>
<!-- Generator: Adobe Illustrator 25.3.0, SVG Export Plug-In . SVG Version: 6.00 Build 0)  -->
<svg version="1.1" id="Layer_1" xmlns="http://www.w3.org/2000/svg" xmlns:xlink="http://www.w3.org/1999/xlink" x="0px" y="0px"
	 viewBox="0 0 1366 768" style="enable-background:new 0 0 1366 768;" xml:space="preserve">
<style type="text/css">
	.st0{fill:url(#Path_1_1_);}
	.st1{fill:url(#Path_2_1_);}
	.st2{fill:url(#Path_3_1_);}
	.st3{fill:url(#Path_4_1_);}
	.st4{fill:url(#Path_5_1_);}
	.st5{fill:url(#Path_6_1_);}
	.st6{fill:url(#Path_7_1_);}
	.st7{fill:url(#Path_8_1_);}
	.st8{fill:url(#Path_9_1_);}
	.st9{fill:url(#Path_10_1_);}
	.st10{fill:url(#Path_11_1_);}
	.st11{fill:url(#Path_12_1_);}
	.st12{opacity:0.768;}
	.st13{fill:#393D40;}
</style>
<g id="RainyDays_Logo_copy">
	
		<linearGradient id="Path_1_1_" gradientUnits="userSpaceOnUse" x1="2.7192" y1="764.4727" x2="2.7192" y2="763.4727" gradientTransform="matrix(207.464 0 0 -54.1519 122.459 41721.7891)">
		<stop  offset="0" style="stop-color:#F2F2F0"/>
		<stop  offset="1" style="stop-color:#393D40"/>
	</linearGradient>
	<path id="Path_1" class="st0" d="M734.23,346.29c0.94,1.39,2.14,2.59,3.53,3.53c2.21,1.67,4.52,3.2,6.79,4.79
		c0.15,0.12,0.27,0.24,0.42,0.36l0.03-0.03c-0.63-0.13-1.25-0.29-1.85-0.48c-4.95-1.89-9.38-4.94-12.92-8.88
		c-1.05-1.1-2.33-1.97-3.74-2.54c-3.83-1.68-7.66-3.32-11.46-5.06c-1.21-0.58-2.38-1.24-3.5-1.97c-1.09-0.79-2.42-1.21-3.77-1.17
		c-0.52-0.03-0.99,0.33-1.11,0.84c0.12,0.33,0.27,0.78,0.42,1.23c0.46,1.32,0.47,2.75,0.03,4.07c-0.33,1.08-0.66,2.18-0.96,3.17
		c0.25,1.58,1.11,2.99,2.39,3.95c0.9,0.78,1.73,1.61,2.69,2.51c-0.51,0.27-0.96,0.48-1.23,0.63c-0.18,1.2-0.3,2.24-0.45,3.32
		c0.81,0.45,1.05-0.48,1.56-0.72c1.05,0.72,2.54,3.38,3.68,6.52c-0.28-0.09-0.55-0.21-0.81-0.36c-0.81-0.6-1.59-1.2-2.36-1.83
		c-0.81-0.67-1.76-1.13-2.78-1.35c-1.17,0.75-1.26,0.93-1.2,2.78c2.45,2.84,5.86,4.7,9.12,7c0.3,1.11,0.72,2.33,0.99,3.59
		c0.42,2.55,1.1,5.04,2.03,7.45c0.04,0.15,0.06,0.3,0.06,0.45c-0.42,0.36-0.75,0.15-1.02-0.21c-0.75-0.93-1.53-1.85-2.18-2.84
		c-1.72-2.75-4.01-5.1-6.7-6.91c-1.35-0.86-2.48-2.03-3.29-3.41c-0.31-0.45-0.67-0.86-1.08-1.23c-0.17,0.28-0.29,0.58-0.36,0.9
		c0.06,1.35,0.15,2.66,0.21,4.01c0.03,0.48,0,0.96,0,1.59c-0.51-0.3-0.87-0.8-0.99-1.38c-1.2-3.13-3.16-5.9-5.71-8.08
		c-1.29-1.17-2.51-2.42-3.77-3.62c-0.65-0.57-1.03-1.38-1.05-2.24c-0.1-2.09-0.56-4.15-1.38-6.07c-0.57-1.37-0.97-2.81-1.2-4.28
		c-0.18-1.6-1.03-3.06-2.33-4.01c-1.14-0.88-2.34-1.68-3.59-2.39c-1.16-0.67-2.23-1.47-3.2-2.39c-2.84-2.72-5.74-5.38-8.62-8.08
		c-0.15-0.11-0.31-0.2-0.48-0.27c-0.18,0.3-0.33,0.57-0.48,0.87c-0.51,1.02-1.02,2.03-1.56,3.05c-0.47,0.88-1.15,1.63-1.97,2.18
		c-0.86,0.5-1.57,1.24-2.03,2.12c-0.24,0.64-0.39,1.32-0.45,2c-0.04,0.59-0.05,1.18-0.03,1.76c-0.57,0.15-0.99,0.27-1.61,0.48
		c-0.45,0.64-0.85,1.3-1.2,2c-0.69,1.65-1.29,3.32-1.91,5c-0.31,1.05-0.43,2.14-0.36,3.23c0,0.66,0.15,1.41-0.54,2.03
		c-1.26-2.66-1.61-5.5-2.42-8.56c-2.81,3.47-5.47,6.73-8.08,9.93c0.36,0.9,0.72,1.64,0.96,2.45c0.87,2.63,0.74,5.48-0.36,8.02
		c-0.32,0.84-0.89,1.57-1.65,2.06c-0.78,0.61-1.88,0.59-2.63-0.06c-0.63-0.48-1.23-1.02-1.83-1.56c-2.04-1.97-3.93-4.09-5.65-6.34
		c-0.62-0.86-1.54-1.45-2.57-1.67c-1.55,0.38-2.98,1.12-4.19,2.15c-2.96,2.34-5.88,4.76-8.88,7.06c-2.51,1.94-5.11,3.77-7.72,5.62
		c-1.16,0.85-2.52,1.41-3.95,1.62c-0.54-0.41-0.77-1.12-0.57-1.77c0.12-0.69,0.18-1.38,0.3-2.06c0.19-0.6-0.08-1.25-0.63-1.56
		c-1.78,0.45-3.44,1.3-4.85,2.48c-2.48,1.83-4.91,3.74-7.36,5.59c-0.51,0.39-1.09,0.68-1.71,0.84c-3.38,0.72-6.79,1.44-10.2,2.03
		c-1.37,0.12-2.75,0.13-4.13,0.03c0.71-0.71,1.52-1.32,2.39-1.83c2.14-1.16,4.18-2.51,6.1-4.01c0.95-0.73,2.01-1.3,3.14-1.7
		c1-0.41,1.97-0.9,2.9-1.47c0.87-0.48,1.67-1.08,2.57-1.5c1.47-0.65,2.71-1.71,3.59-3.05c0.33-0.49,0.69-0.96,1.08-1.41
		c0.15-0.21,0.33-0.39,0.54-0.54c2.03-1.05,3.56-2.84,5.65-3.8c0.5-0.23,0.97-0.53,1.38-0.9c2.01-1.99,4.42-3.54,7.06-4.55
		c0.96-0.4,1.87-0.94,2.69-1.59c1.53-1.1,3.13-2.1,4.79-2.99c0.54-0.36,1.08-0.72,1.61-1.11c0.31-0.25,0.65-0.47,1.02-0.63
		c2-0.6,3.47-2.06,5.14-3.23c0.57-0.39,1.2-0.69,1.8-1.02c0.14-0.06,0.27-0.13,0.39-0.21c2.36-1.74,5.21-2.72,7.39-4.73
		c0.3-0.26,0.65-0.46,1.02-0.6c1.8-0.71,3.48-1.67,5-2.87c0.84-0.63,1.67-1.23,2.57-1.89c0.36-0.06,0.81-0.09,1.2-0.15
		c2.33-1.44,4.61-2.84,7-4.31c1.17,0.15,2-0.6,2.78-1.47c0.48-0.09,0.93-0.15,1.35-0.24c-0.03-0.03-0.03-0.06-0.06-0.12
		c1.38-0.66,2.78-1.29,4.16-1.97c0.62-0.32,1.37-0.3,1.97,0.06c0.92,0.49,1.88,0.89,2.87,1.2c1.69,0.59,3.3,1.41,4.76,2.45
		c1.32,0.87,2.6,1.8,3.95,2.66c0.78,0.51,1.62,0.93,2.42,1.41c0.22,0.11,0.43,0.27,0.6,0.45c1.17,1.77,3.17,2.33,4.7,3.59
		c1.11-0.54,2.15-1.05,3.38-1.62c0.36,0.06,0.9,0.18,1.61,0.33c1.53-0.55,2.99-1.27,4.37-2.12c1.47-0.75,2.93-1.47,4.43-2.15
		c0.87-0.39,1.89-0.35,2.72,0.12c0.9,0.45,1.85,0.72,2.72,1.17c1.04,0.46,2.02,1.03,2.93,1.7c1.13,0.73,2.39,1.23,3.71,1.47
		c2.57,0.75,5.12,1.53,7.69,2.3c1.86,0.57,3.53,1.5,5.33,2.21c1.12,0.53,2.19,1.15,3.2,1.86c0.33-0.09,0.63-0.15,0.93-0.24
		c5.04,1.99,9.86,4.52,14.36,7.54c0.47,0.28,0.91,0.62,1.29,1.02c1.43,1.47,3.22,2.53,5.21,3.05c1.05,0.36,2.06,0.72,3.08,1.08
		c3.03,1.17,5.68,3.14,7.69,5.68c1.97,2.3,4.04,4.55,6.16,6.7c1.9,1.91,4.2,3.38,6.73,4.31c1.96,0.72,3.78,1.77,5.39,3.11
		c2.1,1.83,4.47,3.32,7.03,4.43c-1.51,0.16-3.03,0.02-4.49-0.42c-1.97-0.66-4.01-1.11-6.04-1.59c-0.82-0.2-1.59-0.56-2.27-1.05
		c-3.35-2.42-6.7-4.82-9.39-8.05c-0.9-1.08-1.83-2.12-2.81-3.11c-0.97-1-2.01-1.93-3.11-2.78c-0.67-0.52-1.43-0.9-2.24-1.14
		c-2.74-0.74-5.32-1.97-7.63-3.62c-1.61-1.08-3.17-2.24-4.76-3.38c-1.19-0.9-2.47-1.66-3.83-2.27c-1.14-0.61-2.18-1.38-3.11-2.27
		c-1.83-1.42-4.08-2.19-6.4-2.18c-0.06-0.03-0.09-0.09-0.06-0.03L734.23,346.29z"/>
	
		<linearGradient id="Path_2_1_" gradientUnits="userSpaceOnUse" x1="12.9763" y1="763.4688" x2="12.9763" y2="762.4688" gradientTransform="matrix(22.0395 0 0 -44.3227 358.2111 34223.2305)">
		<stop  offset="0" style="stop-color:#F2F2F0"/>
		<stop  offset="1" style="stop-color:#393D40"/>
	</linearGradient>
	<path id="Path_2" class="st1" d="M639.88,402.32l-0.15,0.15c-0.03,0.03-0.05,0.07-0.06,0.12c-0.02,0.15-0.03,0.3-0.03,0.45v25.4
		c-1.03,0.09-2.07,0.12-3.11,0.09c-1.05,0.03-2.09,0-3.11,0c-0.24-1.14-0.33-41.91-0.09-44.24c0.96,0,1.94-0.03,2.93-0.03h3.11
		c3.14,8.73,6.27,17.46,9.39,26.18c0.06,0,0.12,0.03,0.15,0c0.04-0.03,0.07-0.07,0.09-0.12c0.03-0.04,0.04-0.1,0.03-0.15
		c0-0.15,0.03-0.3,0.03-0.45c0-8.38,0.03-16.75,0.03-25.13c0.03-0.1,0.07-0.2,0.12-0.3c1.94-0.12,3.95-0.03,6.01-0.03v44.21
		c-1.89,0.06-3.8,0.03-5.77,0.03C646.25,419.76,643.08,411.05,639.88,402.32z"/>
	
		<linearGradient id="Path_3_1_" gradientUnits="userSpaceOnUse" x1="12.6329" y1="763.4675" x2="12.6329" y2="762.4675" gradientTransform="matrix(22.7194 0 0 -44.3133 265.2803 34216.0352)">
		<stop  offset="0" style="stop-color:#F2F2F0"/>
		<stop  offset="1" style="stop-color:#393D40"/>
	</linearGradient>
	<path id="Path_3" class="st2" d="M556.83,408.36c2.27,6.73,4.55,13.37,6.82,20.13h-6.7c-1.94-6.25-3.92-12.48-5.86-18.76h-3.65
		l-0.09,0.09c-0.03,0.03-0.09,0.06-0.09,0.12c-0.02,0.15-0.03,0.3-0.03,0.45v18.01c-1.02,0.17-2.05,0.22-3.08,0.15
		c-0.99,0.03-1.97,0-2.96,0c-0.27-1.11-0.36-41.91-0.09-44.19c0.23-0.05,0.46-0.08,0.69-0.09c3.38,0,6.79-0.03,10.17,0.03
		c1.09,0.02,2.17,0.16,3.23,0.42c2.95,0.8,5.28,3.06,6.16,5.98c0.7,2.18,1.01,4.47,0.93,6.76c0.02,1.65-0.18,3.29-0.6,4.88
		c-0.58,2.24-1.98,4.18-3.92,5.45C557.43,407.95,557.12,408.14,556.83,408.36z M547.26,404.08c1.92-0.09,3.71,0.18,5.47-0.3
		c1.36-0.24,2.45-1.26,2.78-2.6c0.63-2.62,0.65-5.36,0.06-7.99c-0.35-1.45-1.5-2.56-2.96-2.87c-1.78-0.21-3.58-0.18-5.35,0.09
		C547.26,394.9,547.26,399.36,547.26,404.08z"/>
	
		<linearGradient id="Path_4_1_" gradientUnits="userSpaceOnUse" x1="13.8159" y1="763.4678" x2="13.8159" y2="762.4678" gradientTransform="matrix(20.537 0 0 -44.3154 430.604 34217.6328)">
		<stop  offset="0" style="stop-color:#F2F2F0"/>
		<stop  offset="1" style="stop-color:#393D40"/>
	</linearGradient>
	<path id="Path_4" class="st3" d="M704.07,428.53v-44.18c0.33-0.03,0.6-0.09,0.87-0.09h9.12c1.45-0.02,2.89,0.23,4.25,0.72
		c2.93,1.02,5.1,3.53,5.68,6.58c0.35,1.5,0.54,3.04,0.57,4.58c0.06,6.67,0.06,13.35,0,20.04c0.03,1.88-0.24,3.76-0.78,5.56
		c-0.88,3.09-3.36,5.46-6.49,6.19c-1.44,0.35-2.92,0.55-4.4,0.6C710,428.61,707.09,428.53,704.07,428.53z M710.33,422.57
		c1.19,0.05,2.37,0.04,3.56-0.03c2.48-0.27,3.98-1.35,4.22-4.49c0.03-0.36,0.03-0.69,0.03-1.05v-21.39c0.01-0.55-0.01-1.1-0.06-1.65
		c-0.09-1.69-1.22-3.15-2.84-3.65c-1.62-0.23-3.26-0.21-4.88,0.06C710.33,401.09,710.33,411.74,710.33,422.57L710.33,422.57z"/>
	
		<linearGradient id="Path_5_1_" gradientUnits="userSpaceOnUse" x1="13.2118" y1="763.5753" x2="13.2118" y2="762.5753" gradientTransform="matrix(21.5964 0 0 -45.1929 528.2048 34891.9688)">
		<stop  offset="0" style="stop-color:#F2F2F0"/>
		<stop  offset="1" style="stop-color:#393D40"/>
	</linearGradient>
	<path id="Path_5" class="st4" d="M824.3,396.81h-6.16c-0.03-0.63-0.09-1.29-0.09-1.92c0.01-1.16-0.37-2.29-1.08-3.2
		c-0.31-0.45-0.72-0.82-1.2-1.08c-2.39-1.05-5.45-0.45-6.22,2.75c-0.33,1.56-0.39,3.17-0.18,4.76c0.12,1.33,0.96,2.48,2.18,2.99
		c1.35,0.63,2.72,1.2,4.1,1.76c1.02,0.42,2.03,0.78,3.05,1.23c3.3,1.29,5.49,4.45,5.53,7.99c0.12,2.19,0.12,4.39,0,6.58
		c-0.08,1.59-0.46,3.15-1.11,4.61c-1.08,2.57-3.31,4.48-6.01,5.14c-3.24,0.99-6.75,0.53-9.63-1.26c-2.8-1.66-4.58-4.62-4.73-7.87
		c-0.06-1.05,0-2.09,0-3.26c2.06-0.09,4.1-0.03,6.25-0.06c0,0.69-0.03,1.29,0,1.85c0.03,0.6,0.12,1.19,0.27,1.77
		c0.35,1.5,1.58,2.64,3.11,2.87c1.12,0.23,2.29,0.13,3.35-0.3c1.34-0.53,2.23-1.82,2.24-3.26c0.1-1.94,0.1-3.89,0-5.83
		c-0.04-1.55-1.04-2.92-2.51-3.41c-1.41-0.6-2.84-1.17-4.25-1.79c-1.23-0.54-2.42-1.11-3.62-1.74c-2.2-1.17-3.73-3.29-4.16-5.74
		c-0.75-3.01-0.69-6.17,0.18-9.15c1.29-4.19,3.98-6.76,8.44-7.33c4.34-0.77,8.71,1.22,10.98,5c0.8,1.2,1.23,2.62,1.23,4.07
		C824.3,394.27,824.3,395.53,824.3,396.81z"/>
	
		<linearGradient id="Path_6_1_" gradientUnits="userSpaceOnUse" x1="11.6137" y1="763.444" x2="11.6137" y2="762.444" gradientTransform="matrix(25.009 0 0 -44.125 458.32 34071.3047)">
		<stop  offset="0" style="stop-color:#F2F2F0"/>
		<stop  offset="1" style="stop-color:#393D40"/>
	</linearGradient>
	<path id="Path_6" class="st5" d="M746.1,384.34h5.33c3.29,14.66,6.57,29.37,9.84,44.12h-6.28c-0.63-3.14-1.26-6.28-1.91-9.45h-8.65
		c-0.63,3.11-1.26,6.25-1.89,9.45h-6.28C739.55,413.75,742.84,399.12,746.1,384.34z M748.89,397.26h-0.27
		c-1.02,5.17-2,10.38-3.02,15.56c2.09,0.3,4.22,0.3,6.31,0C750.89,407.61,749.9,402.44,748.89,397.26L748.89,397.26z"/>
	
		<linearGradient id="Path_7_1_" gradientUnits="userSpaceOnUse" x1="11.6137" y1="763.4477" x2="11.6137" y2="762.4477" gradientTransform="matrix(25.009 0 0 -44.155 296 34094.375)">
		<stop  offset="0" style="stop-color:#F2F2F0"/>
		<stop  offset="1" style="stop-color:#393D40"/>
	</linearGradient>
	<path id="Path_7" class="st6" d="M583.75,384.34h5.32c3.29,14.72,6.58,29.44,9.87,44.15h-6.31c-0.63-3.14-1.26-6.28-1.89-9.45
		h-8.65c-0.63,3.17-1.26,6.31-1.89,9.42h-6.28C577.2,413.69,580.47,398.98,583.75,384.34z M589.41,412.97c0.03-0.35,0.03-0.7,0-1.05
		c-0.87-4.58-1.77-9.12-2.66-13.7c-0.12-0.38-0.28-0.75-0.48-1.11c-1.05,5.42-2.03,10.59-3.05,15.86L589.41,412.97z"/>
	
		<linearGradient id="Path_8_1_" gradientUnits="userSpaceOnUse" x1="2.4664" y1="680.1346" x2="2.4664" y2="679.1346" gradientTransform="matrix(261.728 0 0 -2.7588 36.905 2317.7769)">
		<stop  offset="0" style="stop-color:#F2F2F0"/>
		<stop  offset="1" style="stop-color:#393D40"/>
	</linearGradient>
	<path id="Path_8" class="st7" d="M813.29,442.67c-3.29,0-6.58-0.03-9.84,0c-5.03,0.06-10.05,0.06-15.08,0.33
		c-5.17,0.27-10.35,0.03-15.53,0.3c-6.52,0.33-13.04,0.06-19.57,0.3c-9.12,0.36-18.22,0.09-27.34,0.3
		c-19.09,0.45-38.17,0.18-57.26,0.24c-9.03,0.03-18.04,0.12-27.07-0.09c-9.3-0.21-18.64-0.03-27.94-0.3
		c-6.37-0.18-12.74-0.15-19.12-0.27c-5.41-0.09-10.86-0.18-16.27-0.3c-4.49-0.09-8.95-0.18-13.43-0.3
		c-4.43-0.12-8.86-0.27-13.28-0.51c0.57,0,1.14,0.03,1.7,0c8.5-0.42,17.02-0.09,25.55-0.36c10.17-0.33,20.31-0.12,30.48-0.27
		c34.79-0.54,69.55-0.21,104.34-0.3c9.87-0.03,19.74,0.03,29.62,0.06c3.14,0,6.28-0.06,9.42,0.06c10.47,0.36,20.91,0.06,31.38,0.33
		c7.72,0.21,15.44,0.12,23.15,0.27c2.03,0.03,4.07,0.21,6.07,0.3C813.29,442.53,813.29,442.59,813.29,442.67z"/>
	
		<linearGradient id="Path_9_1_" gradientUnits="userSpaceOnUse" x1="12.2007" y1="763.444" x2="12.2007" y2="762.444" gradientTransform="matrix(23.637 0 0 -44.125 391.187 34071.293)">
		<stop  offset="0" style="stop-color:#F2F2F0"/>
		<stop  offset="1" style="stop-color:#393D40"/>
	</linearGradient>
	<path id="Path_9" class="st8" d="M682.74,428.46h-6.28v-17.23c0-0.79-0.12-1.58-0.36-2.33c-2.57-7.57-5.14-15.13-7.69-22.68
		c-0.21-0.6-0.42-1.17-0.66-1.89h6.61c0.99,2.75,1.67,5.68,2.54,8.56c0.87,2.87,1.67,5.77,2.81,8.68c1.67-5.71,3.32-11.46,5-17.2
		h6.67c-0.45,1.32-0.84,2.57-1.29,3.83c-2.3,6.7-4.58,13.43-6.91,20.13c-0.32,0.93-0.48,1.91-0.48,2.9c0.03,5.23,0,10.47,0,15.7
		C682.74,427.42,682.74,427.9,682.74,428.46z"/>
	
		<linearGradient id="Path_10_1_" gradientUnits="userSpaceOnUse" x1="12.2302" y1="763.467" x2="12.2302" y2="762.467" gradientTransform="matrix(23.5721 0 0 -44.3087 491.1989 34212.5156)">
		<stop  offset="0" style="stop-color:#F2F2F0"/>
		<stop  offset="1" style="stop-color:#393D40"/>
	</linearGradient>
	<path id="Path_10" class="st9" d="M779.52,401.87c1.73-6.01,3.41-11.73,5.09-17.56c1.08,0,2.15-0.03,3.23-0.03h3.44
		c-0.63,1.88-1.2,3.65-1.79,5.41c-1.44,4.22-2.9,8.44-4.34,12.65c-0.69,1.97-1.32,3.95-2.03,5.92c-0.34,0.93-0.5,1.91-0.48,2.9
		c0.03,5.23,0,10.47,0,15.7v1.62c-1.03,0.09-2.07,0.11-3.11,0.06h-3.08c-0.03-0.51-0.06-0.93-0.06-1.38c0-5.33,0-10.65-0.03-16
		c0-0.74-0.12-1.48-0.36-2.18c-2.21-6.58-4.45-13.15-6.7-19.71c-0.48-1.38-0.96-2.72-1.41-4.07c-0.08-0.25-0.14-0.51-0.18-0.78
		c1.09-0.16,2.19-0.2,3.29-0.12c1.05-0.03,2.09,0,3.26,0c0.87,2.93,1.71,5.83,2.54,8.71C777.69,395.86,778.38,398.79,779.52,401.87z
		"/>
	
		<linearGradient id="Path_11_1_" gradientUnits="userSpaceOnUse" x1="41.7165" y1="763.4477" x2="41.7165" y2="762.4477" gradientTransform="matrix(6.2893 0 0 -44.155 352.3661 34094.375)">
		<stop  offset="0" style="stop-color:#F2F2F0"/>
		<stop  offset="1" style="stop-color:#393D40"/>
	</linearGradient>
	<path id="Path_11" class="st10" d="M611.6,384.34h6.07c0.24,1.17,0.27,42.39,0.06,44.15h-6.1c-0.09-1.44-0.03-2.9-0.03-4.4
		L611.6,384.34L611.6,384.34z"/>
	
		<linearGradient id="Path_12_1_" gradientUnits="userSpaceOnUse" x1="1263.0076" y1="-2120.4636" x2="1263.0076" y2="-2121.4636" gradientTransform="matrix(0.2005 0 0 -0.0848 491.8345 175.05)">
		<stop  offset="0" style="stop-color:#F2F2F0"/>
		<stop  offset="1" style="stop-color:#393D40"/>
	</linearGradient>
	<path id="Path_12" class="st11" d="M744.97,354.99c0.15,0.03,0.27,0.03,0.15,0.03c0.12,0.06,0,0-0.09-0.06L744.97,354.99z"/>
</g>
<g id="RainyDays_Logo_copy-2" class="st12">
	<path id="Path_1-2" class="st13" d="M734.23,346.29c0.94,1.39,2.14,2.59,3.53,3.53c2.21,1.67,4.52,3.2,6.79,4.79
		c0.15,0.12,0.27,0.24,0.42,0.36l0.03-0.03c-0.63-0.13-1.25-0.29-1.85-0.48c-4.95-1.89-9.38-4.94-12.92-8.88
		c-1.05-1.1-2.33-1.97-3.74-2.54c-3.83-1.68-7.66-3.32-11.46-5.06c-1.21-0.58-2.38-1.24-3.5-1.97c-1.09-0.79-2.42-1.21-3.77-1.17
		c-0.52-0.03-0.99,0.33-1.11,0.84c0.12,0.33,0.27,0.78,0.42,1.23c0.46,1.32,0.47,2.75,0.03,4.07c-0.33,1.08-0.66,2.18-0.96,3.17
		c0.25,1.58,1.11,2.99,2.39,3.95c0.9,0.78,1.73,1.61,2.69,2.51c-0.51,0.27-0.96,0.48-1.23,0.63c-0.18,1.2-0.3,2.24-0.45,3.32
		c0.81,0.45,1.05-0.48,1.56-0.72c1.05,0.72,2.54,3.38,3.68,6.52c-0.28-0.09-0.55-0.21-0.81-0.36c-0.81-0.6-1.59-1.2-2.36-1.83
		c-0.81-0.67-1.76-1.13-2.78-1.35c-1.17,0.75-1.26,0.93-1.2,2.78c2.45,2.84,5.86,4.7,9.12,7c0.3,1.11,0.72,2.33,0.99,3.59
		c0.42,2.55,1.1,5.04,2.03,7.45c0.04,0.15,0.06,0.3,0.06,0.45c-0.42,0.36-0.75,0.15-1.02-0.21c-0.75-0.93-1.53-1.85-2.18-2.84
		c-1.72-2.75-4.01-5.1-6.7-6.91c-1.35-0.86-2.48-2.03-3.29-3.41c-0.31-0.45-0.67-0.86-1.08-1.23c-0.17,0.28-0.29,0.58-0.36,0.9
		c0.06,1.35,0.15,2.66,0.21,4.01c0.03,0.48,0,0.96,0,1.59c-0.51-0.3-0.87-0.8-0.99-1.38c-1.2-3.13-3.16-5.9-5.71-8.08
		c-1.29-1.17-2.51-2.42-3.77-3.62c-0.65-0.57-1.03-1.38-1.05-2.24c-0.1-2.09-0.56-4.15-1.38-6.07c-0.57-1.37-0.97-2.81-1.2-4.28
		c-0.18-1.6-1.03-3.06-2.33-4.01c-1.14-0.88-2.34-1.68-3.59-2.39c-1.16-0.67-2.23-1.47-3.2-2.39c-2.84-2.72-5.74-5.38-8.62-8.08
		c-0.15-0.11-0.31-0.2-0.48-0.27c-0.18,0.3-0.33,0.57-0.48,0.87c-0.51,1.02-1.02,2.03-1.56,3.05c-0.47,0.88-1.15,1.63-1.97,2.18
		c-0.86,0.5-1.57,1.24-2.03,2.12c-0.24,0.64-0.39,1.32-0.45,2c-0.04,0.59-0.05,1.18-0.03,1.76c-0.57,0.15-0.99,0.27-1.61,0.48
		c-0.45,0.64-0.85,1.3-1.2,2c-0.69,1.65-1.29,3.32-1.91,5c-0.31,1.05-0.43,2.14-0.36,3.23c0,0.66,0.15,1.41-0.54,2.03
		c-1.26-2.66-1.61-5.5-2.42-8.56c-2.81,3.47-5.47,6.73-8.08,9.93c0.36,0.9,0.72,1.64,0.96,2.45c0.87,2.63,0.74,5.48-0.36,8.02
		c-0.32,0.84-0.89,1.57-1.65,2.06c-0.78,0.61-1.88,0.59-2.63-0.06c-0.63-0.48-1.23-1.02-1.83-1.56c-2.04-1.97-3.93-4.09-5.65-6.34
		c-0.62-0.86-1.54-1.45-2.57-1.67c-1.55,0.38-2.98,1.12-4.19,2.15c-2.96,2.34-5.88,4.76-8.88,7.06c-2.51,1.94-5.11,3.77-7.72,5.62
		c-1.16,0.85-2.52,1.41-3.95,1.62c-0.54-0.41-0.77-1.12-0.57-1.77c0.12-0.69,0.18-1.38,0.3-2.06c0.19-0.6-0.08-1.25-0.63-1.56
		c-1.78,0.45-3.44,1.3-4.85,2.48c-2.48,1.83-4.91,3.74-7.36,5.59c-0.51,0.39-1.09,0.68-1.71,0.84c-3.38,0.72-6.79,1.44-10.2,2.03
		c-1.37,0.12-2.75,0.13-4.13,0.03c0.71-0.71,1.52-1.32,2.39-1.83c2.14-1.16,4.18-2.51,6.1-4.01c0.95-0.73,2.01-1.3,3.14-1.7
		c1-0.41,1.97-0.9,2.9-1.47c0.87-0.48,1.67-1.08,2.57-1.5c1.47-0.65,2.71-1.71,3.59-3.05c0.33-0.49,0.69-0.96,1.08-1.41
		c0.15-0.21,0.33-0.39,0.54-0.54c2.03-1.05,3.56-2.84,5.65-3.8c0.5-0.23,0.97-0.53,1.38-0.9c2.01-1.99,4.42-3.54,7.06-4.55
		c0.96-0.4,1.87-0.94,2.69-1.59c1.53-1.1,3.13-2.1,4.79-2.99c0.54-0.36,1.08-0.72,1.61-1.11c0.31-0.25,0.65-0.47,1.02-0.63
		c2-0.6,3.47-2.06,5.14-3.23c0.57-0.39,1.2-0.69,1.8-1.02c0.14-0.06,0.27-0.13,0.39-0.21c2.36-1.74,5.21-2.72,7.39-4.73
		c0.3-0.26,0.65-0.46,1.02-0.6c1.8-0.71,3.48-1.67,5-2.87c0.84-0.63,1.67-1.23,2.57-1.89c0.36-0.06,0.81-0.09,1.2-0.15
		c2.33-1.44,4.61-2.84,7-4.31c1.17,0.15,2-0.6,2.78-1.47c0.48-0.09,0.93-0.15,1.35-0.24c-0.03-0.03-0.03-0.06-0.06-0.12
		c1.38-0.66,2.78-1.29,4.16-1.97c0.62-0.32,1.37-0.3,1.97,0.06c0.92,0.49,1.88,0.89,2.87,1.2c1.69,0.59,3.3,1.41,4.76,2.45
		c1.32,0.87,2.6,1.8,3.95,2.66c0.78,0.51,1.62,0.93,2.42,1.41c0.22,0.11,0.43,0.27,0.6,0.45c1.17,1.77,3.17,2.33,4.7,3.59
		c1.11-0.54,2.15-1.05,3.38-1.62c0.36,0.06,0.9,0.18,1.61,0.33c1.53-0.55,2.99-1.27,4.37-2.12c1.47-0.75,2.93-1.47,4.43-2.15
		c0.87-0.39,1.89-0.35,2.72,0.12c0.9,0.45,1.85,0.72,2.72,1.17c1.04,0.46,2.02,1.03,2.93,1.7c1.13,0.73,2.39,1.23,3.71,1.47
		c2.57,0.75,5.12,1.53,7.69,2.3c1.86,0.57,3.53,1.5,5.33,2.21c1.12,0.53,2.19,1.15,3.2,1.86c0.33-0.09,0.63-0.15,0.93-0.24
		c5.04,1.99,9.86,4.52,14.36,7.54c0.47,0.28,0.91,0.62,1.29,1.02c1.43,1.47,3.22,2.53,5.21,3.05c1.05,0.36,2.06,0.72,3.08,1.08
		c3.03,1.17,5.68,3.14,7.69,5.68c1.97,2.3,4.04,4.55,6.16,6.7c1.9,1.91,4.2,3.38,6.73,4.31c1.96,0.72,3.78,1.77,5.39,3.11
		c2.1,1.83,4.47,3.32,7.03,4.43c-1.51,0.16-3.03,0.02-4.49-0.42c-1.97-0.66-4.01-1.11-6.04-1.59c-0.82-0.2-1.59-0.56-2.27-1.05
		c-3.35-2.42-6.7-4.82-9.39-8.05c-0.9-1.08-1.83-2.12-2.81-3.11c-0.97-1-2.01-1.93-3.11-2.78c-0.67-0.52-1.43-0.9-2.24-1.14
		c-2.74-0.74-5.32-1.97-7.63-3.62c-1.61-1.08-3.17-2.24-4.76-3.38c-1.19-0.9-2.47-1.66-3.83-2.27c-1.14-0.61-2.18-1.38-3.11-2.27
		c-1.83-1.42-4.08-2.19-6.4-2.18c-0.06-0.03-0.09-0.09-0.06-0.03L734.23,346.29z"/>
	<path id="Path_2-2" class="st13" d="M639.88,402.32l-0.15,0.15c-0.03,0.03-0.05,0.07-0.06,0.12c-0.02,0.15-0.03,0.3-0.03,0.45v25.4
		c-1.03,0.09-2.07,0.12-3.11,0.09c-1.05,0.03-2.09,0-3.11,0c-0.24-1.14-0.33-41.91-0.09-44.24c0.96,0,1.94-0.03,2.93-0.03h3.11
		c3.14,8.73,6.27,17.46,9.39,26.18c0.06,0,0.12,0.03,0.15,0c0.04-0.03,0.07-0.07,0.09-0.12c0.03-0.04,0.04-0.1,0.03-0.15
		c0-0.15,0.03-0.3,0.03-0.45c0-8.38,0.03-16.75,0.03-25.13c0.03-0.1,0.07-0.2,0.12-0.3c1.94-0.12,3.95-0.03,6.01-0.03v44.21
		c-1.89,0.06-3.8,0.03-5.77,0.03C646.25,419.76,643.08,411.05,639.88,402.32z"/>
	<path id="Path_3-2" class="st13" d="M556.83,408.36c2.27,6.73,4.55,13.37,6.82,20.13h-6.7c-1.94-6.25-3.92-12.48-5.86-18.76h-3.65
		l-0.09,0.09c-0.03,0.03-0.09,0.06-0.09,0.12c-0.02,0.15-0.03,0.3-0.03,0.45v18.01c-1.02,0.17-2.05,0.22-3.08,0.15
		c-0.99,0.03-1.97,0-2.96,0c-0.27-1.11-0.36-41.91-0.09-44.19c0.23-0.05,0.46-0.08,0.69-0.09c3.38,0,6.79-0.03,10.17,0.03
		c1.09,0.02,2.17,0.16,3.23,0.42c2.95,0.8,5.28,3.06,6.16,5.98c0.7,2.18,1.01,4.47,0.93,6.76c0.02,1.65-0.18,3.29-0.6,4.88
		c-0.58,2.24-1.98,4.18-3.92,5.45C557.43,407.95,557.12,408.14,556.83,408.36z M547.26,404.08c1.92-0.09,3.71,0.18,5.47-0.3
		c1.36-0.24,2.45-1.26,2.78-2.6c0.63-2.62,0.65-5.36,0.06-7.99c-0.35-1.45-1.5-2.56-2.96-2.87c-1.78-0.21-3.58-0.18-5.35,0.09
		C547.26,394.9,547.26,399.36,547.26,404.08z"/>
	<path id="Path_4-2" class="st13" d="M704.07,428.53v-44.18c0.33-0.03,0.6-0.09,0.87-0.09h9.12c1.45-0.02,2.89,0.23,4.25,0.72
		c2.93,1.02,5.1,3.53,5.68,6.58c0.35,1.5,0.54,3.04,0.57,4.58c0.06,6.67,0.06,13.35,0,20.04c0.03,1.88-0.24,3.76-0.78,5.56
		c-0.88,3.09-3.36,5.46-6.49,6.19c-1.44,0.35-2.92,0.55-4.4,0.6C710,428.61,707.09,428.53,704.07,428.53z M710.33,422.57
		c1.19,0.05,2.37,0.04,3.56-0.03c2.48-0.27,3.98-1.35,4.22-4.49c0.03-0.36,0.03-0.69,0.03-1.05v-21.39c0.01-0.55-0.01-1.1-0.06-1.65
		c-0.09-1.69-1.22-3.15-2.84-3.65c-1.62-0.23-3.26-0.21-4.88,0.06C710.33,401.09,710.33,411.74,710.33,422.57L710.33,422.57z"/>
	<path id="Path_5-2" class="st13" d="M824.3,396.81h-6.16c-0.03-0.63-0.09-1.29-0.09-1.92c0.01-1.16-0.37-2.29-1.08-3.2
		c-0.31-0.45-0.72-0.82-1.2-1.08c-2.39-1.05-5.45-0.45-6.22,2.75c-0.33,1.56-0.39,3.17-0.18,4.76c0.12,1.33,0.96,2.48,2.18,2.99
		c1.35,0.63,2.72,1.2,4.1,1.76c1.02,0.42,2.03,0.78,3.05,1.23c3.3,1.29,5.49,4.45,5.53,7.99c0.12,2.19,0.12,4.39,0,6.58
		c-0.08,1.59-0.46,3.15-1.11,4.61c-1.08,2.57-3.31,4.48-6.01,5.14c-3.24,0.99-6.75,0.53-9.63-1.26c-2.8-1.66-4.58-4.62-4.73-7.87
		c-0.06-1.05,0-2.09,0-3.26c2.06-0.09,4.1-0.03,6.25-0.06c0,0.69-0.03,1.29,0,1.85c0.03,0.6,0.12,1.19,0.27,1.77
		c0.35,1.5,1.58,2.64,3.11,2.87c1.12,0.23,2.29,0.13,3.35-0.3c1.34-0.53,2.23-1.82,2.24-3.26c0.1-1.94,0.1-3.89,0-5.83
		c-0.04-1.55-1.04-2.92-2.51-3.41c-1.41-0.6-2.84-1.17-4.25-1.79c-1.23-0.54-2.42-1.11-3.62-1.74c-2.2-1.17-3.73-3.29-4.16-5.74
		c-0.75-3.01-0.69-6.17,0.18-9.15c1.29-4.19,3.98-6.76,8.44-7.33c4.34-0.77,8.71,1.22,10.98,5c0.8,1.2,1.23,2.62,1.23,4.07
		C824.3,394.27,824.3,395.53,824.3,396.81z"/>
	<path id="Path_6-2" class="st13" d="M746.1,384.34h5.33c3.29,14.66,6.57,29.37,9.84,44.12h-6.28c-0.63-3.14-1.26-6.28-1.91-9.45
		h-8.65c-0.63,3.11-1.26,6.25-1.89,9.45h-6.28C739.55,413.75,742.84,399.12,746.1,384.34z M748.89,397.26h-0.27
		c-1.02,5.17-2,10.38-3.02,15.56c2.09,0.3,4.22,0.3,6.31,0C750.89,407.61,749.9,402.44,748.89,397.26L748.89,397.26z"/>
	<path id="Path_7-2" class="st13" d="M583.75,384.34h5.32c3.29,14.72,6.58,29.44,9.87,44.15h-6.31c-0.63-3.14-1.26-6.28-1.89-9.45
		h-8.65c-0.63,3.17-1.26,6.31-1.89,9.42h-6.28C577.2,413.69,580.47,398.98,583.75,384.34z M589.41,412.97c0.03-0.35,0.03-0.7,0-1.05
		c-0.87-4.58-1.77-9.12-2.66-13.7c-0.12-0.38-0.28-0.75-0.48-1.11c-1.05,5.42-2.03,10.59-3.05,15.86L589.41,412.97z"/>
	<path id="Path_8-2" class="st13" d="M813.29,442.67c-3.29,0-6.58-0.03-9.84,0c-5.03,0.06-10.05,0.06-15.08,0.33
		c-5.17,0.27-10.35,0.03-15.53,0.3c-6.52,0.33-13.04,0.06-19.57,0.3c-9.12,0.36-18.22,0.09-27.34,0.3
		c-19.09,0.45-38.17,0.18-57.26,0.24c-9.03,0.03-18.04,0.12-27.07-0.09c-9.3-0.21-18.64-0.03-27.94-0.3
		c-6.37-0.18-12.74-0.15-19.12-0.27c-5.41-0.09-10.86-0.18-16.27-0.3c-4.49-0.09-8.95-0.18-13.43-0.3
		c-4.43-0.12-8.86-0.27-13.28-0.51c0.57,0,1.14,0.03,1.7,0c8.5-0.42,17.02-0.09,25.55-0.36c10.17-0.33,20.31-0.12,30.48-0.27
		c34.79-0.54,69.55-0.21,104.34-0.3c9.87-0.03,19.74,0.03,29.62,0.06c3.14,0,6.28-0.06,9.42,0.06c10.47,0.36,20.91,0.06,31.38,0.33
		c7.72,0.21,15.44,0.12,23.15,0.27c2.03,0.03,4.07,0.21,6.07,0.3C813.29,442.53,813.29,442.59,813.29,442.67z"/>
	<path id="Path_9-2" class="st13" d="M682.74,428.46h-6.28v-17.23c0-0.79-0.12-1.58-0.36-2.33c-2.57-7.57-5.14-15.13-7.69-22.68
		c-0.21-0.6-0.42-1.17-0.66-1.89h6.61c0.99,2.75,1.67,5.68,2.54,8.56c0.87,2.87,1.67,5.77,2.81,8.68c1.67-5.71,3.32-11.46,5-17.2
		h6.67c-0.45,1.32-0.84,2.57-1.29,3.83c-2.3,6.7-4.58,13.43-6.91,20.13c-0.32,0.93-0.48,1.91-0.48,2.9c0.03,5.23,0,10.47,0,15.7
		C682.74,427.42,682.74,427.9,682.74,428.46z"/>
	<path id="Path_10-2" class="st13" d="M779.52,401.87c1.73-6.01,3.41-11.73,5.09-17.56c1.08,0,2.15-0.03,3.23-0.03h3.44
		c-0.63,1.88-1.2,3.65-1.79,5.41c-1.44,4.22-2.9,8.44-4.34,12.65c-0.69,1.97-1.32,3.95-2.03,5.92c-0.34,0.93-0.5,1.91-0.48,2.9
		c0.03,5.23,0,10.47,0,15.7v1.62c-1.03,0.09-2.07,0.11-3.11,0.06h-3.08c-0.03-0.51-0.06-0.93-0.06-1.38c0-5.33,0-10.65-0.03-16
		c0-0.74-0.12-1.48-0.36-2.18c-2.21-6.58-4.45-13.15-6.7-19.71c-0.48-1.38-0.96-2.72-1.41-4.07c-0.08-0.25-0.14-0.51-0.18-0.78
		c1.09-0.16,2.19-0.2,3.29-0.12c1.05-0.03,2.09,0,3.26,0c0.87,2.93,1.71,5.83,2.54,8.71C777.69,395.86,778.38,398.79,779.52,401.87z
		"/>
	<path id="Path_11-2" class="st13" d="M611.6,384.34h6.07c0.24,1.17,0.27,42.39,0.06,44.15h-6.1c-0.09-1.44-0.03-2.9-0.03-4.4
		L611.6,384.34L611.6,384.34z"/>
	<path id="Path_12-2" class="st13" d="M744.97,354.99c0.15,0.03,0.27,0.03,0.15,0.03c0.12,0.06,0,0-0.09-0.06L744.97,354.99z"/>
</g>
</svg>
